HIERARCHY
ROOT Hips
{
	OFFSET 0.000000 100.481300 0.000000
	CHANNELS 6 Xposition Yposition Zposition Xrotation Yrotation Zrotation 
	JOINT Spine
	{
		OFFSET -0.279200 12.230698 -2.892100
		CHANNELS 3 Xrotation Yrotation Zrotation
		JOINT Spine1
		{
			OFFSET -0.232667 10.192268 -1.242267
			CHANNELS 3 Xrotation Yrotation Zrotation
			JOINT Spine1_split
			{
				OFFSET -0.232667 10.192268 -1.242267
				CHANNELS 3 Xrotation Yrotation Zrotation
				JOINT Spine2
				{
					OFFSET -0.232667 10.192268 -1.242267
					CHANNELS 3 Xrotation Yrotation Zrotation
					JOINT Neck
					{
						OFFSET -0.418800 17.814194 8.416900
						CHANNELS 3 Xrotation Yrotation Zrotation
						JOINT Head
						{
							OFFSET 0.000000 7.031097 3.806800
							CHANNELS 3 Xrotation Yrotation Zrotation
							JOINT HeadTop_End
							{
								OFFSET 0.000000 24.646606 12.978600
								CHANNELS 3 Xrotation Yrotation Zrotation
								End Site
								{
									OFFSET 0.000000 0.000000 0.000000
								}
							}
						}
					}
					JOINT LeftShoulder
					{
						OFFSET 8.476499 7.247704 -3.868750
						CHANNELS 3 Xrotation Yrotation Zrotation
						JOINT LeftShoulder_split
						{
							OFFSET 8.476499 7.247704 -3.868750
							CHANNELS 3 Xrotation Yrotation Zrotation
							JOINT LeftArm
							{
								OFFSET 9.308998 -2.777710 0.208600
								CHANNELS 3 Xrotation Yrotation Zrotation
								JOINT LeftForeArm
								{
									OFFSET 29.972298 0.000000 0.000000
									CHANNELS 3 Xrotation Yrotation Zrotation
									JOINT LeftHand
									{
										OFFSET 26.026505 0.000000 0.000000
										CHANNELS 3 Xrotation Yrotation Zrotation
										JOINT LeftHandThumb1
										{
											OFFSET 12.240501 -7.147949 9.207150
											CHANNELS 3 Xrotation Yrotation Zrotation
											JOINT LeftHandThumb2
											{
												OFFSET 4.138618 -2.389435 2.389433
												CHANNELS 3 Xrotation Yrotation Zrotation
												JOINT LeftHandThumb3
												{
													OFFSET 2.726913 -1.574387 1.574386
													CHANNELS 3 Xrotation Yrotation Zrotation
													JOINT LeftHandThumb4
													{
														OFFSET 3.941010 -2.275345 2.275342
														CHANNELS 3 Xrotation Yrotation Zrotation
														End Site
														{
															OFFSET 0.000000 0.000000 0.000000
														}
													}
												}
											}
										}
										JOINT LeftHandIndex1
										{
											OFFSET 24.424698 -1.985611 5.953459
											CHANNELS 3 Xrotation Yrotation Zrotation
											JOINT LeftHandIndex2
											{
												OFFSET 6.426697 0.000000 0.000000
												CHANNELS 3 Xrotation Yrotation Zrotation
												JOINT LeftHandIndex3
												{
													OFFSET 5.337898 0.000000 0.000000
													CHANNELS 3 Xrotation Yrotation Zrotation
													JOINT LeftHandIndex4
													{
														OFFSET 4.409401 0.000000 0.000000
														CHANNELS 3 Xrotation Yrotation Zrotation
														End Site
														{
															OFFSET 0.000000 0.000000 0.000000
														}
													}
												}
											}
										}
										JOINT LeftHandMiddle1
										{
											OFFSET 23.810104 0.000000 0.000000
											CHANNELS 3 Xrotation Yrotation Zrotation
											JOINT LeftHandMiddle2
											{
												OFFSET 7.176498 0.000000 0.000000
												CHANNELS 3 Xrotation Yrotation Zrotation
												JOINT LeftHandMiddle3
												{
													OFFSET 6.774902 0.000000 0.000000
													CHANNELS 3 Xrotation Yrotation Zrotation
													JOINT LeftHandMiddle4
													{
														OFFSET 5.403328 0.000000 0.000000
														CHANNELS 3 Xrotation Yrotation Zrotation
														End Site
														{
															OFFSET 0.000000 0.000000 0.000000
														}
													}
												}
											}
										}
										JOINT LeftHandRing1
										{
											OFFSET 22.908401 -0.839279 -6.020567
											CHANNELS 3 Xrotation Yrotation Zrotation
											JOINT LeftHandRing2
											{
												OFFSET 6.337502 0.000000 0.000000
												CHANNELS 3 Xrotation Yrotation Zrotation
												JOINT LeftHandRing3
												{
													OFFSET 5.779297 0.000000 0.000000
													CHANNELS 3 Xrotation Yrotation Zrotation
													JOINT LeftHandRing4
													{
														OFFSET 4.965698 0.000000 0.000000
														CHANNELS 3 Xrotation Yrotation Zrotation
														End Site
														{
															OFFSET 0.000000 0.000000 0.000000
														}
													}
												}
											}
										}
										JOINT LeftHandPinky1
										{
											OFFSET 20.037003 -1.530319 -10.950146
											CHANNELS 3 Xrotation Yrotation Zrotation
											JOINT LeftHandPinky2
											{
												OFFSET 5.254700 0.000000 0.000000
												CHANNELS 3 Xrotation Yrotation Zrotation
												JOINT LeftHandPinky3
												{
													OFFSET 4.810204 0.000000 0.000000
													CHANNELS 3 Xrotation Yrotation Zrotation
													JOINT LeftHandPinky4
													{
														OFFSET 3.647202 0.000000 0.000000
														CHANNELS 3 Xrotation Yrotation Zrotation
														End Site
														{
															OFFSET 0.000000 0.000000 0.000000
														}
													}
												}
											}
										}
									}
								}
							}
						}
					}
					JOINT RightShoulder
					{
						OFFSET -7.570500 7.247704 -3.868750
						CHANNELS 3 Xrotation Yrotation Zrotation
						JOINT RightShoulder_split
						{
							OFFSET -7.570500 7.247704 -3.868750
							CHANNELS 3 Xrotation Yrotation Zrotation
							JOINT RightArm
							{
								OFFSET -9.308998 -2.777710 0.208500
								CHANNELS 3 Xrotation Yrotation Zrotation
								JOINT RightForeArm
								{
									OFFSET -29.972300 0.000000 0.000000
									CHANNELS 3 Xrotation Yrotation Zrotation
									JOINT RightHand
									{
										OFFSET -26.026505 0.000000 0.000000
										CHANNELS 3 Xrotation Yrotation Zrotation
										JOINT RightHandThumb1
										{
											OFFSET -12.240601 -7.148026 9.207092
											CHANNELS 3 Xrotation Yrotation Zrotation
											JOINT RightHandThumb2
											{
												OFFSET -4.138618 -2.389435 2.389433
												CHANNELS 3 Xrotation Yrotation Zrotation
												JOINT RightHandThumb3
												{
													OFFSET -2.726974 -1.574417 1.574421
													CHANNELS 3 Xrotation Yrotation Zrotation
													JOINT RightHandThumb4
													{
														OFFSET -3.941010 -2.275345 2.275343
														CHANNELS 3 Xrotation Yrotation Zrotation
														End Site
														{
															OFFSET 0.000000 0.000000 0.000000
														}
													}
												}
											}
										}
										JOINT RightHandIndex1
										{
											OFFSET -24.424698 -1.985657 5.953444
											CHANNELS 3 Xrotation Yrotation Zrotation
											JOINT RightHandIndex2
											{
												OFFSET -6.426697 0.000000 0.000000
												CHANNELS 3 Xrotation Yrotation Zrotation
												JOINT RightHandIndex3
												{
													OFFSET -5.337898 0.000000 0.000000
													CHANNELS 3 Xrotation Yrotation Zrotation
													JOINT RightHandIndex4
													{
														OFFSET -4.409401 0.000000 0.000000
														CHANNELS 3 Xrotation Yrotation Zrotation
														End Site
														{
															OFFSET 0.000000 0.000000 0.000000
														}
													}
												}
											}
										}
										JOINT RightHandMiddle1
										{
											OFFSET -23.810097 0.000000 0.000000
											CHANNELS 3 Xrotation Yrotation Zrotation
											JOINT RightHandMiddle2
											{
												OFFSET -7.176498 0.000000 0.000000
												CHANNELS 3 Xrotation Yrotation Zrotation
												JOINT RightHandMiddle3
												{
													OFFSET -6.774902 0.000000 0.000000
													CHANNELS 3 Xrotation Yrotation Zrotation
													JOINT RightHandMiddle4
													{
														OFFSET -5.403328 0.000000 0.000000
														CHANNELS 3 Xrotation Yrotation Zrotation
														End Site
														{
															OFFSET 0.000000 0.000000 0.000000
														}
													}
												}
											}
										}
										JOINT RightHandRing1
										{
											OFFSET -22.908302 -0.839325 -6.020576
											CHANNELS 3 Xrotation Yrotation Zrotation
											JOINT RightHandRing2
											{
												OFFSET -6.337502 0.000000 0.000000
												CHANNELS 3 Xrotation Yrotation Zrotation
												JOINT RightHandRing3
												{
													OFFSET -5.779297 0.000000 0.000000
													CHANNELS 3 Xrotation Yrotation Zrotation
													JOINT RightHandRing4
													{
														OFFSET -4.965698 0.000000 0.000000
														CHANNELS 3 Xrotation Yrotation Zrotation
														End Site
														{
															OFFSET 0.000000 0.000000 0.000000
														}
													}
												}
											}
										}
										JOINT RightHandPinky1
										{
											OFFSET -20.037003 -1.530334 -10.950259
											CHANNELS 3 Xrotation Yrotation Zrotation
											JOINT RightHandPinky2
											{
												OFFSET -5.254700 0.000000 0.000000
												CHANNELS 3 Xrotation Yrotation Zrotation
												JOINT RightHandPinky3
												{
													OFFSET -4.810204 0.000000 0.000000
													CHANNELS 3 Xrotation Yrotation Zrotation
													JOINT RightHandPinky4
													{
														OFFSET -3.647202 0.000000 0.000000
														CHANNELS 3 Xrotation Yrotation Zrotation
														End Site
														{
															OFFSET 0.000000 0.000000 0.000000
														}
													}
												}
											}
										}
									}
								}
							}
						}
					}
				}
			}
		}
	}
	JOINT LeftUpLeg
	{
		OFFSET 15.427100 -6.655098 0.678600
		CHANNELS 3 Xrotation Yrotation Zrotation
		JOINT LeftLeg
		{
			OFFSET 4.081073 -39.591068 13.024000
			CHANNELS 3 Xrotation Yrotation Zrotation
			JOINT LeftFoot
			{
				OFFSET -4.081074 -37.707932 -15.979700
				CHANNELS 3 Xrotation Yrotation Zrotation
				JOINT LeftToeBase
				{
					OFFSET 5.346399 -15.068900 20.645000
					CHANNELS 3 Xrotation Yrotation Zrotation
					JOINT LeftToe_End
					{
						OFFSET 2.754700 0.931300 11.300900
						CHANNELS 3 Xrotation Yrotation Zrotation
						End Site
						{
							OFFSET 0.000000 0.000000 0.000000
						}
					}
				}
			}
		}
	}
	JOINT RightUpLeg
	{
		OFFSET -15.569500 -6.655098 0.678600
		CHANNELS 3 Xrotation Yrotation Zrotation
		JOINT RightLeg
		{
			OFFSET -4.081825 -39.591045 13.023800
			CHANNELS 3 Xrotation Yrotation Zrotation
			JOINT RightFoot
			{
				OFFSET 4.081824 -37.707954 -15.979600
				CHANNELS 3 Xrotation Yrotation Zrotation
				JOINT RightToeBase
				{
					OFFSET -5.346400 -15.068900 20.645000
					CHANNELS 3 Xrotation Yrotation Zrotation
					JOINT RightToe_End
					{
						OFFSET -2.754700 0.931300 11.300900
						CHANNELS 3 Xrotation Yrotation Zrotation
						End Site
						{
							OFFSET 0.000000 0.000000 0.000000
						}
					}
				}
			}
		}
	}
}
MOTION
Frames: 4
Frame Time: 0.016667
1.027263 96.176132 -2.170749 2.912725 -28.996738 0.976724 7.837237 -0.327498 -2.471384 1.099248 -0.880571 2.383465 0.000000 0.000000 0.000000 1.108682 -0.590432 2.446365 -3.841828 18.019029 -6.496414 -6.332734 13.021622 0.301451 -0.000000 -0.000000 -0.000000 -0.057079 -8.759454 -0.061261 0.000000 0.000000 0.000000 -55.250766 0.329469 -41.449392 11.584425 -65.827335 13.005554 -50.189118 12.353137 4.610187 17.551616 -5.699236 -12.932307 10.850489 26.127765 8.644853 20.927001 51.115876 0.218750 -0.000001 -0.000000 0.000004 13.980882 1.201523 -55.004360 0.370831 1.161731 -65.441900 1.983959 2.148007 -57.665115 0.000001 -0.000000 -0.000001 7.504728 1.174471 -63.778483 1.807828 1.475690 -64.567964 0.130383 -0.912241 -43.272517 0.000001 0.000001 -0.000000 8.574345 2.179093 -75.148979 -0.207654 1.009263 -57.855070 0.443084 1.742179 -53.581270 0.000000 0.000000 -0.000000 10.030082 13.637039 -84.750244 0.877109 0.062287 -64.595476 1.141288 1.253118 -55.016317 -0.000000 -0.000000 0.000000 4.849284 7.760150 5.560463 0.000000 0.000000 0.000000 -0.933506 -2.176885 61.845628 11.299300 18.943448 -3.987610 -0.459238 6.620145 5.830118 15.788534 -2.734455 -17.205883 -2.198295 -31.113557 7.361294 -6.566794 -4.138109 2.407547 -0.000002 -0.000000 0.000001 2.372302 -3.659074 8.487500 -2.147369 -2.473140 18.673286 -1.918356 -4.820984 14.172135 0.000000 0.000000 0.000000 -1.976249 -5.707889 13.662376 0.283053 -5.105405 26.988089 -0.657822 -1.220594 16.125920 0.000000 -0.000000 0.000001 -3.263080 -8.563310 11.769005 4.036051 -4.063312 33.263144 2.108297 -3.160501 15.593807 -0.000000 0.000000 -0.000002 -6.474142 -11.347960 23.260715 10.719419 -2.558792 34.822944 6.414155 -3.079529 15.311025 -0.000000 0.000000 0.000005 -13.774466 18.274852 13.063246 14.395679 11.473042 -1.668921 -2.222493 -2.507036 -7.548422 -0.145174 0.008042 -0.311793 -0.000000 -0.000000 0.000000 -8.422790 -1.526537 -8.449164 10.993179 9.446530 0.847321 -5.764272 -0.832172 6.906387 -1.288157 -0.016763 0.150244 0.000000 -0.000001 0.000000 
1.086716 96.128128 -2.203658 2.891523 -29.086033 0.983557 7.937610 -0.306219 -2.417013 1.080462 -0.850008 2.358320 0.000000 0.000000 0.000000 1.088651 -0.565124 2.416395 -3.855334 18.005316 -6.571706 -6.317581 12.968643 0.353973 -0.000000 0.000000 -0.000000 -0.057069 -8.759450 -0.061263 0.000000 0.000000 0.000000 -55.271421 0.413121 -41.445212 11.503894 -65.871096 12.918243 -50.190327 12.364717 4.610386 17.551619 -5.699234 -12.932306 10.850486 26.127767 8.644853 20.927001 51.115869 0.218750 -0.000003 -0.000002 -0.000000 13.980882 1.201523 -55.004357 0.370831 1.161731 -65.441907 1.983961 2.148007 -57.665108 0.000000 -0.000001 -0.000000 7.504730 1.174471 -63.778483 1.807828 1.475691 -64.567964 0.130382 -0.912243 -43.272510 0.000000 -0.000001 0.000000 8.574345 2.179093 -75.148979 -0.207653 1.009263 -57.855076 0.443084 1.742179 -53.581267 -0.000000 0.000000 -0.000001 10.030083 13.637038 -84.750237 0.877108 0.062287 -64.595483 1.141288 1.253118 -55.016313 0.000000 -0.000000 -0.000002 4.865852 7.713961 5.066076 0.000000 0.000000 0.000000 -1.727485 -3.842177 62.180792 11.300524 19.067257 -3.968905 -0.401669 6.552091 5.647301 15.848972 -2.695762 -17.150610 -2.384669 -31.097513 7.210825 -6.533845 -4.206811 2.475142 -0.000000 0.000000 0.000001 2.412226 -3.560309 9.282995 -2.102626 -2.491898 20.475845 -1.836436 -4.853174 15.143504 -0.000001 -0.000000 0.000001 -1.994709 -5.660129 14.224503 0.416707 -5.085386 28.451571 -0.632285 -1.180531 17.568872 -0.000001 -0.000001 0.000002 -3.395392 -8.569166 12.124399 4.157468 -3.928411 34.228448 2.165258 -3.122061 16.926235 0.000001 -0.000000 0.000001 -6.836887 -11.346080 23.402364 10.672936 -2.539589 35.822368 6.410320 -3.077516 15.664200 -0.000000 0.000000 0.000001 -13.830497 18.268939 13.051937 14.543674 11.486192 -1.668335 -2.284833 -2.443008 -7.541045 -0.145184 0.008038 -0.311792 0.000000 0.000000 0.000000 -8.548842 -1.490225 -8.499836 11.140724 9.438632 0.844445 -5.778463 -0.745447 6.943776 -1.288173 -0.016761 0.150243 -0.000000 0.000000 -0.000000 
1.153924 96.052094 -2.242406 2.891827 -29.202959 1.019331 8.055737 -0.285187 -2.365399 1.045027 -0.814360 2.320276 0.000000 0.000000 0.000000 1.051741 -0.537262 2.372767 -3.859431 18.003603 -6.653442 -6.291793 12.928295 0.401020 0.000000 -0.000000 -0.000000 -0.056873 -8.756160 -0.061018 0.000000 0.000000 0.000000 -55.279084 0.492932 -41.432197 11.415530 -65.915813 12.820345 -50.192533 12.364379 4.627908 17.551619 -5.699233 -12.932307 10.850487 26.127765 8.644853 20.926998 51.115869 0.218749 -0.000001 -0.000000 -0.000000 13.980882 1.201524 -55.004360 0.370832 1.161731 -65.441900 1.983959 2.148007 -57.665108 0.000000 -0.000000 -0.000000 7.504731 1.174473 -63.778483 1.807829 1.475690 -64.567964 0.130382 -0.912241 -43.272513 -0.000000 -0.000000 -0.000000 8.574345 2.179094 -75.148979 -0.207654 1.009263 -57.855070 0.443084 1.742179 -53.581263 0.000000 0.000000 0.000000 10.030084 13.637038 -84.750244 0.877109 0.062287 -64.595483 1.141288 1.253118 -55.016313 0.000000 0.000000 -0.000001 4.899520 7.770211 4.883299 0.000000 0.000000 0.000000 -2.486735 -5.619529 62.291769 11.240951 19.305408 -3.821093 -0.295084 6.502933 5.287246 15.913519 -2.655465 -17.091836 -2.582621 -31.081288 7.049772 -6.498509 -4.276777 2.548375 0.000001 0.000001 0.000001 2.451975 -3.455404 10.124587 -2.056494 -2.510903 22.383097 -1.749157 -4.885700 16.171480 -0.000001 -0.000000 0.000000 -2.015459 -5.610607 14.819350 0.556763 -5.060600 29.999888 -0.607994 -1.137312 19.095556 0.000000 -0.000000 0.000004 -3.535410 -8.575338 12.500582 4.281585 -3.782344 35.249216 2.224735 -3.080025 18.336041 -0.000001 0.000001 -0.000001 -7.220727 -11.346653 23.553277 10.626883 -2.521963 36.881857 6.406507 -3.075564 16.039596 0.000000 -0.000000 -0.000001 -13.939643 18.260792 13.021919 14.757865 11.429013 -1.669948 -2.374328 -2.280589 -7.520769 -0.145190 0.008043 -0.311787 -0.000000 -0.000000 0.000000 -8.752784 -1.417291 -8.603279 11.387960 9.282703 0.833335 -5.834152 -0.504170 7.034338 -1.288168 -0.016763 0.150243 0.000000 -0.000000 -0.000000 
1.236042 95.937912 -2.288081 2.912337 -29.367102 1.093214 8.215998 -0.260443 -2.305292 0.982369 -0.769357 2.257492 0.000000 0.000000 0.000000 0.987264 -0.504683 2.302937 -3.858820 18.023139 -6.759836 -6.253561 12.897460 0.461517 -0.000000 0.000000 0.000000 -0.053858 -8.693464 -0.060967 0.000000 0.000000 0.000000 -55.250394 0.554230 -41.417478 11.247132 -65.966309 12.636288 -50.201464 12.368743 4.700098 17.551616 -5.699234 -12.932304 10.850487 26.127758 8.644855 20.926996 51.115869 0.218750 0.000001 0.000001 0.000002 13.980880 1.201524 -55.004360 0.370829 1.161731 -65.441900 1.983960 2.148007 -57.665115 0.000000 0.000001 0.000001 7.504728 1.174472 -63.778483 1.807827 1.475691 -64.567964 0.130384 -0.912242 -43.272517 -0.000000 0.000000 0.000000 8.574344 2.179094 -75.148979 -0.207653 1.009263 -57.855070 0.443085 1.742180 -53.581267 0.000000 0.000001 -0.000001 10.030083 13.637040 -84.750244 0.877109 0.062287 -64.595483 1.141288 1.253118 -55.016313 -0.000000 -0.000000 -0.000001 4.923727 7.918123 4.671084 0.000000 0.000000 0.000000 -3.132922 -7.632040 62.463801 11.059128 19.707843 -3.492754 -0.105821 6.503904 4.622645 15.981671 -2.613698 -17.029910 -2.790765 -31.064691 6.879411 -6.461043 -4.347818 2.626693 -0.000000 0.000002 -0.000003 2.490959 -3.344923 11.007152 -2.009447 -2.530179 24.383605 -1.657011 -4.918121 17.249711 -0.000000 0.000000 -0.000001 -2.038538 -5.559737 15.443196 0.702048 -5.030697 31.623790 -0.585485 -1.091326 20.696730 -0.000001 0.000001 -0.000000 -3.682342 -8.586001 12.895185 4.407019 -3.625679 36.319114 2.286208 -3.034585 19.814585 -0.000002 0.000001 -0.000001 -7.623299 -11.349997 23.712696 10.582181 -2.506284 37.994983 6.402835 -3.073771 16.434755 -0.000000 0.000000 0.000000 -14.104571 18.253558 12.966530 15.067361 11.342138 -1.660955 -2.509595 -2.038905 -7.506777 -0.145180 0.008049 -0.311790 -0.000000 0.000000 0.000000 -9.061695 -1.307512 -8.767009 11.767096 9.023213 0.815537 -5.939911 -0.127134 7.170028 -1.288159 -0.016758 0.150244 -0.000000 0.000002 0.000000 
